<mxfile host="app.diagrams.net" modified="2022-10-03T05:41:46.512Z" agent="5.0 (Windows NT 10.0; Win64; x64) AppleWebKit/537.36 (KHTML, like Gecko) Chrome/105.0.0.0 Safari/537.36 OPR/91.0.4516.20" etag="fIbvaVoKgRepbiGCLLzV" version="20.4.0" type="github">
  <diagram id="CZVpNmvq4UjVErvkMGxj" name="Страница 1">
    <mxGraphModel dx="1422" dy="764" grid="1" gridSize="10" guides="1" tooltips="1" connect="1" arrows="1" fold="1" page="1" pageScale="1" pageWidth="827" pageHeight="1169" math="0" shadow="0">
      <root>
        <mxCell id="0" />
        <mxCell id="1" parent="0" />
        <mxCell id="5e9d36rBXtQ9en5j7aQE-2" style="edgeStyle=orthogonalEdgeStyle;rounded=0;orthogonalLoop=1;jettySize=auto;html=1;exitX=0.5;exitY=1;exitDx=0;exitDy=0;entryX=0.5;entryY=0;entryDx=0;entryDy=0;" edge="1" parent="1" source="5e9d36rBXtQ9en5j7aQE-1" target="5e9d36rBXtQ9en5j7aQE-3">
          <mxGeometry relative="1" as="geometry">
            <mxPoint x="400" y="140" as="targetPoint" />
          </mxGeometry>
        </mxCell>
        <mxCell id="5e9d36rBXtQ9en5j7aQE-1" value="SecondArrayWithlf" style="rounded=1;whiteSpace=wrap;html=1;" vertex="1" parent="1">
          <mxGeometry x="400" y="40" width="160" height="70" as="geometry" />
        </mxCell>
        <mxCell id="5e9d36rBXtQ9en5j7aQE-4" style="edgeStyle=orthogonalEdgeStyle;rounded=0;orthogonalLoop=1;jettySize=auto;html=1;exitX=0.5;exitY=1;exitDx=0;exitDy=0;entryX=0.5;entryY=0;entryDx=0;entryDy=0;" edge="1" parent="1" source="5e9d36rBXtQ9en5j7aQE-3" target="5e9d36rBXtQ9en5j7aQE-5">
          <mxGeometry relative="1" as="geometry">
            <mxPoint x="400" y="230" as="targetPoint" />
          </mxGeometry>
        </mxCell>
        <mxCell id="5e9d36rBXtQ9en5j7aQE-3" value="string [] array1&lt;br&gt;string [] array 2&lt;br&gt;int count = 0" style="shape=parallelogram;perimeter=parallelogramPerimeter;whiteSpace=wrap;html=1;fixedSize=1;" vertex="1" parent="1">
          <mxGeometry x="390" y="140" width="180" height="60" as="geometry" />
        </mxCell>
        <mxCell id="5e9d36rBXtQ9en5j7aQE-8" style="edgeStyle=orthogonalEdgeStyle;rounded=0;orthogonalLoop=1;jettySize=auto;html=1;exitX=0.5;exitY=1;exitDx=0;exitDy=0;entryX=0.5;entryY=0;entryDx=0;entryDy=0;" edge="1" parent="1" source="5e9d36rBXtQ9en5j7aQE-5" target="5e9d36rBXtQ9en5j7aQE-7">
          <mxGeometry relative="1" as="geometry" />
        </mxCell>
        <mxCell id="5e9d36rBXtQ9en5j7aQE-5" value="for (int i = 0; i &amp;lt; array1.Length; i&amp;nbsp; ++)" style="shape=hexagon;perimeter=hexagonPerimeter2;whiteSpace=wrap;html=1;fixedSize=1;" vertex="1" parent="1">
          <mxGeometry x="370" y="250" width="220" height="100" as="geometry" />
        </mxCell>
        <mxCell id="5e9d36rBXtQ9en5j7aQE-12" style="edgeStyle=orthogonalEdgeStyle;rounded=0;orthogonalLoop=1;jettySize=auto;html=1;exitX=0;exitY=1;exitDx=0;exitDy=0;entryX=0.335;entryY=0.988;entryDx=0;entryDy=0;entryPerimeter=0;" edge="1" parent="1" source="5e9d36rBXtQ9en5j7aQE-7" target="5e9d36rBXtQ9en5j7aQE-10">
          <mxGeometry relative="1" as="geometry" />
        </mxCell>
        <mxCell id="5e9d36rBXtQ9en5j7aQE-17" value="yes" style="edgeLabel;html=1;align=center;verticalAlign=middle;resizable=0;points=[];" vertex="1" connectable="0" parent="5e9d36rBXtQ9en5j7aQE-12">
          <mxGeometry x="0.2139" y="-3" relative="1" as="geometry">
            <mxPoint as="offset" />
          </mxGeometry>
        </mxCell>
        <mxCell id="5e9d36rBXtQ9en5j7aQE-13" style="edgeStyle=orthogonalEdgeStyle;rounded=0;orthogonalLoop=1;jettySize=auto;html=1;exitX=0;exitY=0.5;exitDx=0;exitDy=0;" edge="1" parent="1" source="5e9d36rBXtQ9en5j7aQE-7">
          <mxGeometry relative="1" as="geometry">
            <mxPoint x="385" y="330" as="targetPoint" />
            <Array as="points">
              <mxPoint x="365" y="430" />
              <mxPoint x="365" y="330" />
              <mxPoint x="379" y="330" />
            </Array>
          </mxGeometry>
        </mxCell>
        <mxCell id="5e9d36rBXtQ9en5j7aQE-21" value="no" style="edgeLabel;html=1;align=center;verticalAlign=middle;resizable=0;points=[];" vertex="1" connectable="0" parent="5e9d36rBXtQ9en5j7aQE-13">
          <mxGeometry x="-0.1429" y="1" relative="1" as="geometry">
            <mxPoint as="offset" />
          </mxGeometry>
        </mxCell>
        <mxCell id="5e9d36rBXtQ9en5j7aQE-7" value="if (array1[i].Length &amp;lt;=3)" style="rhombus;whiteSpace=wrap;html=1;" vertex="1" parent="1">
          <mxGeometry x="385" y="390" width="190" height="80" as="geometry" />
        </mxCell>
        <mxCell id="5e9d36rBXtQ9en5j7aQE-11" style="edgeStyle=orthogonalEdgeStyle;rounded=0;orthogonalLoop=1;jettySize=auto;html=1;exitX=1;exitY=0.5;exitDx=0;exitDy=0;entryX=0.023;entryY=0.6;entryDx=0;entryDy=0;entryPerimeter=0;" edge="1" parent="1" source="5e9d36rBXtQ9en5j7aQE-10" target="5e9d36rBXtQ9en5j7aQE-5">
          <mxGeometry relative="1" as="geometry">
            <mxPoint x="370" y="310" as="targetPoint" />
          </mxGeometry>
        </mxCell>
        <mxCell id="5e9d36rBXtQ9en5j7aQE-10" value="array2[count] = array1[i]&lt;br&gt;count ++" style="rounded=0;whiteSpace=wrap;html=1;" vertex="1" parent="1">
          <mxGeometry x="100" y="270" width="170" height="80" as="geometry" />
        </mxCell>
      </root>
    </mxGraphModel>
  </diagram>
</mxfile>
